ffmpeg version 7.1.1 Copyright (c) 2000-2025 the FFmpeg developers  built with Apple clang version 16.0.0 (clang-1600.0.26.6)  configuration: --prefix=/usr/local/Cellar/ffmpeg/7.1.1_1 --enable-shared --enable-pthreads --enable-version3 --cc=clang --host-cflags= --host-ldflags='-Wl,-ld_classic' --enable-ffplay --enable-gnutls --enable-gpl --enable-libaom --enable-libaribb24 --enable-libbluray --enable-libdav1d --enable-libharfbuzz --enable-libjxl --enable-libmp3lame --enable-libopus --enable-librav1e --enable-librist --enable-librubberband --enable-libsnappy --enable-libsrt --enable-libssh --enable-libsvtav1 --enable-libtesseract --enable-libtheora --enable-libvidstab --enable-libvmaf --enable-libvorbis --enable-libvpx --enable-libwebp --enable-libx264 --enable-libx265 --enable-libxml2 --enable-libxvid --enable-lzma --enable-libfontconfig --enable-libfreetype --enable-frei0r --enable-libass --enable-libopencore-amrnb --enable-libopencore-amrwb --enable-libopenjpeg --enable-libspeex --enable-libsoxr --enable-libzmq --enable-libzimg --disable-libjack --disable-indev=jack --enable-videotoolbox --enable-audiotoolbox  libavutil      59. 39.100 / 59. 39.100  libavcodec     61. 19.101 / 61. 19.101  libavformat    61.  7.100 / 61.  7.100  libavdevice    61.  3.100 / 61.  3.100  libavfilter    10.  4.100 / 10.  4.100  libswscale      8.  3.100 /  8.  3.100  libswresample   5.  3.100 /  5.  3.100  libpostproc    58.  3.100 / 58.  3.100Input #0, mp3, from '/Users/hope-506044/Desktop/Afrofil/server/schemas/Artist_schema/uploads/1741983049977_temp_file':  Metadata:    major_brand     : dash    minor_version   : 0    compatible_brands: iso6mp41    encoder         : Lavf58.29.100  Duration: 00:04:12.81, start: 0.025057, bitrate: 192 kb/s  Stream #0:0: Audio: mp3 (mp3float), 44100 Hz, stereo, fltp, 192 kb/s      Metadata:        encoder         : Lavc58.54Stream mapping:  Stream #0:0 -> #0:0 (mp3 (mp3float) -> mp3 (libmp3lame))Press [q] to stop, [?] for helpOutput #0, mp3, to '/Users/hope-506044/Desktop/Afrofil/server/schemas/Artist_schema/uploads/temp.mp3':  Metadata:    major_brand     : dash    minor_version   : 0    compatible_brands: iso6mp41    TSSE            : Lavf61.7.100  Stream #0:0: Audio: mp3, 48000 Hz, stereo, fltp      Metadata:        encoder         : Lavc61.19.101 libmp3lamesize=     164KiB time=00:00:10.51 bitrate= 127.9kbits/s speed=20.9x    size=     256KiB time=00:00:21.79 bitrate=  96.2kbits/s speed=21.7x    size=     512KiB time=00:00:33.26 bitrate= 126.1kbits/s speed=22.1x    size=     512KiB time=00:00:45.31 bitrate=  92.6kbits/s speed=22.6x    size=     768KiB time=00:00:57.45 bitrate= 109.5kbits/s speed=22.9x    size=    1024KiB time=00:01:08.78 bitrate= 122.0kbits/s speed=22.8x    size=    1024KiB time=00:01:20.78 bitrate= 103.8kbits/s speed=  23x    size=    1280KiB time=00:01:31.87 bitrate= 114.1kbits/s speed=22.8x    size=    1536KiB time=00:01:43.99 bitrate= 121.0kbits/s speed=  23x    size=    1792KiB time=00:01:55.80 bitrate= 126.8kbits/s speed=  23x    size=    1792KiB time=00:02:07.94 bitrate= 114.7kbits/s speed=23.1x    size=    2048KiB time=00:02:19.89 bitrate= 119.9kbits/s speed=23.2x    size=    2304KiB time=00:02:31.89 bitrate= 124.3kbits/s speed=23.2x    size=    2304KiB time=00:02:43.75 bitrate= 115.3kbits/s speed=23.3x    size=    2560KiB time=00:02:55.63 bitrate= 119.4kbits/s speed=23.3x    size=    2816KiB time=00:03:07.72 bitrate= 122.9kbits/s speed=23.3x    size=    3072KiB time=00:03:19.80 bitrate= 126.0kbits/s speed=23.4x    size=    3072KiB time=00:03:31.48 bitrate= 119.0kbits/s speed=23.4x    size=    3328KiB time=00:03:43.58 bitrate= 121.9kbits/s speed=23.4x    size=    3584KiB time=00:03:54.96 bitrate= 125.0kbits/s speed=23.4x    size=    3584KiB time=00:04:05.08 bitrate= 119.8kbits/s speed=23.2x    [Parsed_loudnorm_0 @ 0x7fa1c04040c0] {	"input_i" : "-12.60",	"input_tp" : "-1.80",	"input_lra" : "5.50",	"input_thresh" : "-22.74",	"output_i" : "-11.24",	"output_tp" : "-1.50",	"output_lra" : "4.10",	"output_thresh" : "-21.33",	"normalization_type" : "dynamic",	"target_offset" : "-0.76"}[out#0/mp3 @ 0x7fa1c7f3d1c0] video:0KiB audio:3950KiB subtitle:0KiB other streams:0KiB global headers:0KiB muxing overhead: 0.008133%size=    3951KiB time=00:04:12.80 bitrate= 128.0kbits/s speed=23.2x    